<svg width="48" height="48" viewBox="0 0 48 48" fill="none" xmlns="http://www.w3.org/2000/svg">
<rect width="48" height="48" rx="24" fill="#FFD200" fill-opacity="0.1"/>
<path d="M15.99 27C15.1567 27 14.4483 26.7083 13.865 26.125C13.2817 25.5417 12.99 24.8333 12.99 24C12.99 23.1667 13.2817 22.4583 13.865 21.875C14.4483 21.2917 15.1567 21 15.99 21V19C15.99 18.45 16.1858 17.9792 16.5775 17.5875C16.9692 17.1958 17.44 17 17.99 17H20.99C20.99 16.1667 21.2817 15.4583 21.865 14.875C22.4483 14.2917 23.1567 14 23.99 14C24.8233 14 25.5317 14.2917 26.115 14.875C26.6983 15.4583 26.99 16.1667 26.99 17H29.99C30.54 17 31.0108 17.1958 31.4025 17.5875C31.7942 17.9792 31.99 18.45 31.99 19V21C32.8233 21 33.5317 21.2917 34.115 21.875C34.6983 22.4583 34.99 23.1667 34.99 24C34.99 24.8333 34.6983 25.5417 34.115 26.125C33.5317 26.7083 32.8233 27 31.99 27V31C31.99 31.55 31.7942 32.0208 31.4025 32.4125C31.0108 32.8042 30.54 33 29.99 33H17.99C17.44 33 16.9692 32.8042 16.5775 32.4125C16.1858 32.0208 15.99 31.55 15.99 31V27ZM20.99 25C21.4067 25 21.7608 24.8542 22.0525 24.5625C22.3442 24.2708 22.49 23.9167 22.49 23.5C22.49 23.0833 22.3442 22.7292 22.0525 22.4375C21.7608 22.1458 21.4067 22 20.99 22C20.5733 22 20.2192 22.1458 19.9275 22.4375C19.6358 22.7292 19.49 23.0833 19.49 23.5C19.49 23.9167 19.6358 24.2708 19.9275 24.5625C20.2192 24.8542 20.5733 25 20.99 25ZM26.99 25C27.4067 25 27.7608 24.8542 28.0525 24.5625C28.3442 24.2708 28.49 23.9167 28.49 23.5C28.49 23.0833 28.3442 22.7292 28.0525 22.4375C27.7608 22.1458 27.4067 22 26.99 22C26.5733 22 26.2192 22.1458 25.9275 22.4375C25.6358 22.7292 25.49 23.0833 25.49 23.5C25.49 23.9167 25.6358 24.2708 25.9275 24.5625C26.2192 24.8542 26.5733 25 26.99 25ZM19.99 29H27.99V27H19.99V29ZM17.99 31H29.99V19H17.99V31Z" fill="#FFD200"/>
</svg>
