<svg width="48" height="48" viewBox="0 0 48 48" fill="none" xmlns="http://www.w3.org/2000/svg">
<rect width="48" height="48" rx="24" fill="#FFD200" fill-opacity="0.1"/>
<path d="M19.99 30H21.49V28H23.49V26.5H21.49V24.5H19.99V26.5H17.99V28H19.99V30ZM24.99 29.25H29.99V27.75H24.99V29.25ZM24.99 26.75H29.99V25.25H24.99V26.75ZM26.09 22.95L27.49 21.55L28.89 22.95L29.94 21.9L28.54 20.45L29.94 19.05L28.89 18L27.49 19.4L26.09 18L25.04 19.05L26.44 20.45L25.04 21.9L26.09 22.95ZM18.24 21.2H23.24V19.7H18.24V21.2ZM16.99 33C16.44 33 15.9692 32.8042 15.5775 32.4125C15.1858 32.0208 14.99 31.55 14.99 31V17C14.99 16.45 15.1858 15.9792 15.5775 15.5875C15.9692 15.1958 16.44 15 16.99 15H30.99C31.54 15 32.0108 15.1958 32.4025 15.5875C32.7942 15.9792 32.99 16.45 32.99 17V31C32.99 31.55 32.7942 32.0208 32.4025 32.4125C32.0108 32.8042 31.54 33 30.99 33H16.99ZM16.99 31H30.99V17H16.99V31ZM16.99 17V31V17Z" fill="#FFD200"/>
</svg>
