<svg width="31" height="31" viewBox="0 0 31 31" fill="none" xmlns="http://www.w3.org/2000/svg">
<path d="M5.39999 12.4875L8.32499 13.725C8.67499 13.025 9.03749 12.35 9.41249 11.7C9.78749 11.05 10.2 10.4 10.65 9.74995L8.54999 9.33745L5.39999 12.4875ZM10.725 15.6L15 19.8375C16.05 19.4375 17.175 18.825 18.375 18C19.575 17.175 20.7 16.2375 21.75 15.1875C23.5 13.4375 24.8687 11.4937 25.8562 9.3562C26.8437 7.2187 27.275 5.24995 27.15 3.44995C25.35 3.32495 23.375 3.7562 21.225 4.7437C19.075 5.7312 17.125 7.09995 15.375 8.84995C14.325 9.89995 13.3875 11.025 12.5625 12.225C11.7375 13.425 11.125 14.55 10.725 15.6ZM17.4 13.1625C16.825 12.5875 16.5375 11.8812 16.5375 11.0437C16.5375 10.2062 16.825 9.49995 17.4 8.92495C17.975 8.34995 18.6875 8.06245 19.5375 8.06245C20.3875 8.06245 21.1 8.34995 21.675 8.92495C22.25 9.49995 22.5375 10.2062 22.5375 11.0437C22.5375 11.8812 22.25 12.5875 21.675 13.1625C21.1 13.7375 20.3875 14.025 19.5375 14.025C18.6875 14.025 17.975 13.7375 17.4 13.1625ZM18.1125 25.2L21.2625 22.05L20.85 19.95C20.2 20.4 19.55 20.8062 18.9 21.1687C18.25 21.5312 17.575 21.8875 16.875 22.2375L18.1125 25.2ZM29.85 0.712451C30.325 3.73745 30.0312 6.6812 28.9687 9.5437C27.9062 12.4062 26.075 15.1375 23.475 17.7375L24.225 21.45C24.325 21.95 24.3 22.4375 24.15 22.9125C24 23.3875 23.75 23.8 23.4 24.15L17.1 30.45L13.95 23.0625L7.53749 16.65L0.149988 13.5L6.41249 7.19995C6.76249 6.84995 7.18124 6.59995 7.66874 6.44995C8.15624 6.29995 8.64999 6.27495 9.14999 6.37495L12.8625 7.12495C15.4625 4.52495 18.1875 2.68745 21.0375 1.61245C23.8875 0.537451 26.825 0.237451 29.85 0.712451ZM2.81249 21.4125C3.68749 20.5375 4.75624 20.0937 6.01874 20.0812C7.28124 20.0687 8.34999 20.5 9.22499 21.375C10.1 22.25 10.5312 23.3187 10.5187 24.5812C10.5062 25.8437 10.0625 26.9125 9.18749 27.7875C8.56249 28.4125 7.51874 28.95 6.05624 29.4C4.59374 29.85 2.57499 30.25 -1.21891e-05 30.6C0.349988 28.025 0.749988 26.0062 1.19999 24.5437C1.64999 23.0812 2.18749 22.0375 2.81249 21.4125ZM4.94999 23.5125C4.69999 23.7625 4.44999 24.2187 4.19999 24.8812C3.94999 25.5437 3.77499 26.2125 3.67499 26.8875C4.34999 26.7875 5.01874 26.6187 5.68124 26.3812C6.34374 26.1437 6.79999 25.9 7.04999 25.65C7.34999 25.35 7.51249 24.9875 7.53749 24.5625C7.56249 24.1375 7.42499 23.775 7.12499 23.475C6.82499 23.175 6.46249 23.0312 6.03749 23.0437C5.61249 23.0562 5.24999 23.2125 4.94999 23.5125Z" fill="#FFD200"/>
</svg>
