<svg width="97" height="37" viewBox="0 0 97 37" fill="none" xmlns="http://www.w3.org/2000/svg">
<path d="M12 30C8.525 29.125 5.65625 27.1313 3.39375 24.0188C1.13125 20.9063 1.78814e-07 17.45 1.78814e-07 13.65V4.5L12 -7.15256e-07L24 4.5V13.65C24 17.45 22.8687 20.9063 20.6062 24.0188C18.3437 27.1313 15.475 29.125 12 30ZM12 26.85C14.6 26.025 16.75 24.375 18.45 21.9C20.15 19.425 21 16.675 21 13.65V6.5625L12 3.1875L3 6.5625V13.65C3 16.675 3.85 19.425 5.55 21.9C7.25 24.375 9.4 26.025 12 26.85ZM31.725 36.4125V33.6H64.275V36.4125H31.725ZM80.325 24L71.775 15.45L73.9125 13.3125L80.325 19.725L94.0875 5.9625L96.225 8.1L80.325 24Z" fill="#FFD200"/>
</svg>
