<svg width="40" height="40" viewBox="0 0 40 40" fill="none" xmlns="http://www.w3.org/2000/svg">
<rect width="40" height="40" rx="8" fill="black"/>
<path d="M14.28 27V24.68H16.12V15.32H14.28V13H21.48C22.3333 13 23.0767 13.1433 23.71 13.43C24.3433 13.7167 24.8367 14.1233 25.19 14.65C25.5433 15.1767 25.72 15.8067 25.72 16.54V16.74C25.72 17.38 25.6 17.9033 25.36 18.31C25.12 18.7167 24.8367 19.03 24.51 19.25C24.1833 19.47 23.8733 19.6267 23.58 19.72V20.08C23.8733 20.16 24.1933 20.31 24.54 20.53C24.8867 20.75 25.1833 21.0667 25.43 21.48C25.6767 21.8933 25.8 22.4333 25.8 23.1V23.3C25.8 24.0733 25.62 24.7367 25.26 25.29C24.9 25.8433 24.4033 26.2667 23.77 26.56C23.1367 26.8533 22.4 27 21.56 27H14.28ZM18.76 24.6H21.24C21.8133 24.6 22.2767 24.46 22.63 24.18C22.9833 23.9 23.16 23.5 23.16 22.98V22.78C23.16 22.26 22.9867 21.86 22.64 21.58C22.2933 21.3 21.8267 21.16 21.24 21.16H18.76V24.6ZM18.76 18.76H21.2C21.7467 18.76 22.1967 18.62 22.55 18.34C22.9033 18.06 23.08 17.6733 23.08 17.18V16.98C23.08 16.4733 22.9067 16.0833 22.56 15.81C22.2133 15.5367 21.76 15.4 21.2 15.4H18.76V18.76Z" fill="#FFD200"/>
</svg>
